<svg xmlns="http://www.w3.org/2000/svg" width="512" height="360" viewBox="0 0 512 360">
  <defs><linearGradient id="recap-bg" x1="0" y1="0" x2="1" y2="1"><stop stop-color="#17283c"/><stop offset="1" stop-color="#0d1725"/></linearGradient></defs>
  <rect x="14" y="20" width="484" height="320" rx="36" fill="url(#recap-bg)" stroke="#58d8ff" stroke-width="5"/>
  <g fill="#213a55" stroke="#58cfff" stroke-width="4">
    <rect x="36" y="45" width="205" height="118" rx="24"/><rect x="271" y="45" width="205" height="118" rx="24"/>
    <rect x="36" y="195" width="205" height="118" rx="24"/><rect x="271" y="195" width="205" height="118" rx="24"/>
  </g>
  <g fill="none" stroke-linecap="round" stroke-linejoin="round">
    <circle cx="100" cy="94" r="22" fill="#ffd2a2" stroke="#152033" stroke-width="5"/><circle cx="175" cy="94" r="22" fill="#f0bd89" stroke="#152033" stroke-width="5"/>
    <path d="M100 122v22m75-22v22M127 105h21" stroke="#83e5ff" stroke-width="6"/>
    <path d="m133 98-8 7 8 7m10-14 8 7-8 7" stroke="#83e5ff" stroke-width="4"/>
    <circle cx="330" cy="100" r="24" fill="#ffd2a2" stroke="#152033" stroke-width="5"/><circle cx="418" cy="100" r="24" fill="#f0bd89" stroke="#152033" stroke-width="5"/>
    <path d="M350 112h36" stroke="#ffd15a" stroke-width="6" stroke-dasharray="7 7"/>
    <path d="M363 67h48a15 15 0 0 1 15 15v14h-51l-15 13 3-13h-15V82a15 15 0 0 1 15-15Z" fill="#fff" stroke="#ffb51b" stroke-width="4"/>
    <circle cx="379" cy="83" r="4" fill="#ffb51b"/><circle cx="393" cy="83" r="4" fill="#ffb51b"/><circle cx="407" cy="83" r="4" fill="#ffb51b"/>
    <circle cx="102" cy="240" r="23" fill="#ffd2a2" stroke="#152033" stroke-width="5"/><circle cx="180" cy="240" r="23" fill="#f0bd89" stroke="#152033" stroke-width="5"/>
    <path d="M124 260h36" stroke="#7ce5ff" stroke-width="5" stroke-dasharray="7 7"/>
    <path d="M311 280h126" stroke="#7ce5ff" stroke-width="5" stroke-dasharray="9 9"/>
  </g>
  <g>
    <circle cx="365" cy="231" r="22" fill="#ffd2a2" stroke="#152033" stroke-width="5"/><path d="M342 256h46v38h-46z" fill="#21698b" stroke="#152033" stroke-width="5"/>
    <path d="M350 292l-8 19m38-19 8 19" stroke="#152033" stroke-width="9" stroke-linecap="round"/>
    <rect x="345" y="278" width="40" height="32" rx="7" fill="#f4aa18" stroke="#152033" stroke-width="5"/>
  </g>
</svg>
